HIERARCHY
ROOT SimulationBone
{
	OFFSET 0.000000 0.000000 0.000000
	CHANNELS 6 Xposition Yposition Zposition Zrotation Yrotation Xrotation 
	JOINT Hips
	{
		OFFSET 0.000000 0.000000 0.000000
		CHANNELS 6 Xposition Yposition Zposition Zrotation Yrotation Xrotation 
		JOINT RightUpLeg
		{
			OFFSET 0.103458 1.857820 10.548502
			CHANNELS 3 Zrotation Yrotation Xrotation
			JOINT RightLeg
			{
				OFFSET 43.500000 -0.000023 -0.000011
				CHANNELS 3 Zrotation Yrotation Xrotation
				JOINT RightFoot
				{
					OFFSET 42.372192 0.000038 0.000002
					CHANNELS 3 Zrotation Yrotation Xrotation
					JOINT RightToe
					{
						OFFSET 17.299992 -0.000004 0.000006
						CHANNELS 3 Zrotation Yrotation Xrotation
						End Site
						{
							OFFSET 0.000000 0.000000 0.000000
						}
					}
				}
			}
		}
		JOINT LeftUpLeg
		{
			OFFSET 0.103461 1.857814 -10.548508
			CHANNELS 3 Zrotation Yrotation Xrotation
			JOINT LeftLeg
			{
				OFFSET 43.500042 -0.000015 0.000008
				CHANNELS 3 Zrotation Yrotation Xrotation
				JOINT LeftFoot
				{
					OFFSET 42.372253 0.000008 0.000006
					CHANNELS 3 Zrotation Yrotation Xrotation
					JOINT LeftToe
					{
						OFFSET 17.299973 -0.000014 0.000011
						CHANNELS 3 Zrotation Yrotation Xrotation
						End Site
						{
							OFFSET 0.000000 0.000000 0.000000
						}
					}
				}
			}
		}
		JOINT Spine
		{
			OFFSET 6.901966 -2.603737 -0.000007
			CHANNELS 3 Zrotation Yrotation Xrotation
			JOINT Spine1
			{
				OFFSET 12.588102 0.000017 0.000001
				CHANNELS 3 Zrotation Yrotation Xrotation
				JOINT Spine2
				{
					OFFSET 12.343197 -0.000013 0.000000
					CHANNELS 3 Zrotation Yrotation Xrotation
					JOINT Neck
					{
						OFFSET 25.832905 -0.000008 0.000000
						CHANNELS 3 Zrotation Yrotation Xrotation
						JOINT Head
						{
							OFFSET 11.766610 0.000009 -0.000002
							CHANNELS 3 Zrotation Yrotation Xrotation
							End Site
							{
								OFFSET 0.000000 0.000000 0.000000
							}
						}
					}
					JOINT RightShoulder
					{
						OFFSET 19.745903 -1.480377 6.000115
						CHANNELS 3 Zrotation Yrotation Xrotation
						JOINT RightArm
						{
							OFFSET 11.284125 -0.000014 -0.000024
							CHANNELS 3 Zrotation Yrotation Xrotation
							JOINT RightForeArm
							{
								OFFSET 33.000046 -0.000012 0.000029
								CHANNELS 3 Zrotation Yrotation Xrotation
								JOINT RightHand
								{
									OFFSET 25.199989 0.000034 0.000012
									CHANNELS 3 Zrotation Yrotation Xrotation
									End Site
									{
										OFFSET 0.000000 0.000000 0.000000
									}
								}
							}
						}
					}
					JOINT LeftShoulder
					{
						OFFSET 19.746098 -1.480362 -6.000071
						CHANNELS 3 Zrotation Yrotation Xrotation
						JOINT LeftArm
						{
							OFFSET 11.284137 -0.000006 -0.000008
							CHANNELS 3 Zrotation Yrotation Xrotation
							JOINT LeftForeArm
							{
								OFFSET 33.000095 0.000017 0.000000
								CHANNELS 3 Zrotation Yrotation Xrotation
								JOINT LeftHand
								{
									OFFSET 25.199778 0.000144 0.000423
									CHANNELS 3 Zrotation Yrotation Xrotation
									End Site
									{
										OFFSET 0.000000 0.000000 0.000000
									}
								}
							}
						}
					}
				}
			}
		}
	}
}
MOTION
Frames: 14
Frame Time: 0.016667
-224.718990 0.000000 -545.665366 180.000000 -88.842824 180.000000 -2.221120 88.637497 -1.676675 92.934155 -2.068357 179.957951 -174.682949 -5.103497 178.449757 -24.448580 -5.390635 -7.703645 90.175667 4.179406 -8.307294 21.454558 0.003108 0.000016 142.311949 4.016006 -175.555123 -61.631972 4.985308 2.228408 67.537278 -0.989051 2.212643 21.454555 -0.003097 -0.000004 10.359430 0.413921 -1.978136 10.689186 1.008922 -3.909585 10.371840 0.985172 -3.915597 10.139304 7.851649 6.914951 -17.831396 -9.757260 11.559670 -167.527997 -77.570945 -14.192975 -9.135614 54.732114 15.227996 -76.651278 -13.195306 2.682829 4.855539 -4.424206 37.251776 -165.496248 74.959157 16.321008 2.284694 -63.400505 3.822516 -68.845178 17.752642 -2.636532 16.496691 3.865425 -66.436416 
-224.502283 0.000000 -543.957720 180.000000 -88.136980 180.000000 -2.452357 88.564655 -1.618083 92.395763 -1.769204 179.927380 -173.610972 -5.093898 178.100298 -23.505845 -5.355914 -7.986959 90.135035 4.354472 -8.431974 21.454559 0.003103 0.000016 142.084066 3.751164 -176.266381 -55.541657 5.756488 3.101952 67.604307 -1.509490 2.619519 21.454552 -0.003097 -0.000000 10.288697 0.559243 -2.110421 10.541438 1.308532 -4.161239 10.224169 1.283261 -4.169056 9.293962 8.594828 7.261615 -18.047226 -10.199788 12.230057 -168.019828 -77.897381 -13.690945 -9.559876 54.984493 13.149212 -79.419002 -11.552397 2.691295 4.114083 -4.306400 36.314312 -164.164042 75.122082 17.683439 2.126825 -62.018981 3.713425 -66.940239 18.193280 -2.588682 18.031193 1.559254 -58.172955 
-224.341959 0.000000 -542.218992 180.000000 -87.463174 180.000000 -2.699487 88.415604 -1.562402 91.956157 -1.523746 179.837505 -172.444996 -5.077806 177.686442 -22.616553 -5.388097 -8.225268 90.198671 4.507328 -8.550766 21.454560 0.003100 0.000017 142.325527 3.369506 -176.838297 -48.799177 5.974331 3.878540 67.302996 -1.828137 3.267024 21.454551 -0.003093 0.000004 10.263670 0.677520 -2.211228 10.485939 1.552756 -4.352210 10.168733 1.526331 -4.361496 8.264584 9.427550 7.490547 -18.066696 -10.753704 12.831042 -168.582018 -78.287192 -13.118045 -10.341610 55.107662 10.730262 -82.004958 -9.880929 2.683722 3.555162 -4.013760 35.639011 -162.904191 75.243860 18.971490 1.897920 -60.522536 3.324957 -64.865650 18.508074 -2.527699 18.672031 -0.756413 -51.653813 
-224.230178 0.000000 -540.454619 180.000000 -86.818150 180.000000 -2.934606 88.188230 -1.474815 91.606161 -1.255735 179.776601 -171.165827 -5.167166 177.083609 -21.754973 -5.444676 -8.306164 90.417847 4.564135 -8.660582 21.454557 0.003099 0.000018 143.080568 2.840667 -176.910025 -41.421905 5.419925 4.433355 66.419173 -1.889767 4.066045 21.454553 -0.003085 0.000004 10.278128 0.783495 -2.293646 10.509782 1.772192 -4.507023 10.192617 1.744829 -4.517620 7.173302 10.503282 7.616075 -18.026934 -11.494359 13.434867 -169.162626 -78.822679 -12.527256 -11.405537 55.201119 8.116736 -84.383042 -8.330150 2.676802 3.200032 -3.702236 35.301792 -162.335226 75.163542 19.554511 1.770857 -58.732748 2.417404 -62.780447 18.771423 -2.461079 18.596144 -2.738621 -46.860825 
-224.161952 0.000000 -538.670796 180.000000 -86.197711 180.000000 -3.154140 87.912003 -1.376918 91.323319 -0.981431 179.738173 -169.710503 -5.283004 176.521239 -20.712479 -5.556745 -8.381513 90.663240 4.624781 -8.744587 21.454555 0.003102 0.000018 144.246286 2.214905 -176.917609 -33.708543 4.485845 4.778648 65.303718 -1.919354 4.531112 21.454555 -0.003080 0.000001 10.312928 0.879149 -2.367859 10.574566 1.971113 -4.645963 10.257429 1.942912 -4.657751 6.217426 11.519028 7.725088 -18.085670 -12.059208 13.969560 -169.883073 -79.406038 -11.795030 -12.490532 55.228774 5.470504 -86.578152 -6.847035 2.673307 3.087088 -3.427254 35.348414 -162.340591 75.094258 19.549802 1.651268 -56.922081 1.056434 -60.532373 19.084537 -2.398253 17.836414 -4.304673 -43.154712 
-224.137591 0.000000 -536.871653 180.000000 -85.597157 180.000000 -3.360517 87.614522 -1.300307 91.090026 -0.728889 179.695569 -168.038184 -5.337308 176.215050 -19.332185 -5.739852 -8.604461 90.798676 4.785737 -8.795698 21.454555 0.003109 0.000017 145.654316 1.569048 -177.513812 -26.110752 3.664098 5.177401 64.348268 -2.245264 4.317154 21.454553 -0.003083 -0.000001 10.350643 0.964786 -2.437818 10.645423 2.149854 -4.777160 10.328310 2.120870 -4.790027 5.567349 12.184215 7.901962 -18.354875 -12.153531 14.368408 -170.858378 -79.930761 -10.804536 -13.371280 55.163758 2.948519 -88.587840 -5.384752 2.663651 3.184058 -3.196255 35.753094 -162.599547 75.244787 19.283206 1.445303 -55.381353 -0.622018 -57.963224 19.490908 -2.334721 16.400791 -5.422142 -39.901558 
-224.157151 0.000000 -535.058691 180.000000 -85.013332 180.000000 -3.543041 87.284317 -1.243577 90.925480 -0.481011 179.632374 -166.228008 -5.350409 175.953938 -17.851661 -5.900249 -8.857824 90.842287 4.958433 -8.861771 21.454557 0.003114 0.000016 146.993743 0.958994 -179.431187 -19.535888 3.262440 6.376034 63.560633 -3.222869 4.013314 21.454551 -0.003090 -0.000001 10.393699 1.046910 -2.485207 10.727416 2.319809 -4.863407 10.410302 2.290308 -4.877301 5.191389 12.705226 8.080029 -18.777495 -12.198305 14.732192 -172.000965 -80.440326 -9.646001 -14.206688 55.094940 0.621052 -90.255854 -4.119981 2.646332 3.161059 -2.911867 36.233620 -162.774144 75.454523 19.102423 1.164460 -54.019271 -2.351328 -55.216836 19.775450 -2.248786 14.563543 -6.013317 -37.088821 
-224.218138 0.000000 -533.232468 180.000000 -84.444658 180.000000 -3.700048 86.909958 -1.194920 90.831341 -0.203591 179.529961 -164.423736 -5.361193 175.522067 -16.598657 -5.963759 -9.013582 90.841426 5.052115 -8.995861 21.454558 0.003110 0.000016 147.937315 0.419414 177.062886 -14.947580 3.366144 8.841574 62.801393 -4.972440 4.164068 21.454551 -0.003095 -0.000001 10.443455 1.135006 -2.491182 10.823471 2.498167 -4.866164 10.506307 2.468637 -4.881124 4.991638 13.298885 8.180332 -19.238331 -12.610791 15.159250 -173.197795 -80.967157 -8.435249 -15.187536 55.095330 -1.456580 -91.425183 -3.243232 2.635128 2.760355 -2.516277 36.535186 -162.641557 75.535094 19.237225 0.841283 -52.687504 -3.928510 -52.477772 19.757498 -2.145349 12.688822 -6.060078 -34.849459 
-224.319486 0.000000 -531.394168 180.000000 -83.891007 180.000000 -3.880103 86.519234 -1.142852 90.700855 0.162893 179.353339 -162.912593 -5.435595 175.117881 -15.859003 -6.006653 -9.195191 90.806039 5.151429 -9.216210 21.454558 0.003104 0.000016 148.186800 -0.146592 173.639678 -13.052497 3.819011 11.274487 61.779661 -6.729759 4.181563 21.454553 -0.003092 0.000000 10.477010 1.244344 -2.457193 10.887409 2.714484 -4.787460 10.570139 2.685414 -4.803716 4.815451 13.732616 8.259135 -19.524149 -13.079538 15.542437 -174.381969 -81.344144 -7.238043 -16.183347 55.102235 -3.144355 -92.087785 -2.776609 2.634306 2.312253 -2.235897 36.782692 -162.556275 75.552420 19.324297 0.481843 -51.397842 -5.536236 -49.758050 19.656255 -2.053289 11.200344 -5.696105 -33.212354 
-224.464111 0.000000 -529.544916 180.000000 -83.352985 180.000000 -4.114564 86.141318 -1.075885 90.449415 0.663675 179.091458 -161.913534 -5.648099 174.922604 -15.839359 -6.093422 -9.504426 90.713442 5.322831 -9.530035 21.454556 0.003104 0.000015 147.572888 -0.887742 172.194205 -14.202928 4.463572 12.161618 60.422267 -7.676288 3.401754 21.454553 -0.003081 0.000001 10.478098 1.386918 -2.396376 10.886191 2.993240 -4.652928 10.568765 2.964975 -4.670873 4.519910 13.782759 8.382705 -19.469572 -13.251541 15.768317 -175.300322 -81.418154 -6.307658 -17.000035 55.078846 -4.333885 -92.292245 -2.677726 2.637460 2.173147 -2.273506 37.136032 -162.877833 75.593967 18.995053 0.017118 -50.195951 -7.280638 -47.010834 19.681486 -1.972795 10.390672 -5.082684 -32.145645 
-224.653533 0.000000 -527.684471 180.000000 -82.829106 180.000000 -4.315344 85.771698 -0.973972 90.189859 1.256755 178.855325 -161.228869 -6.010801 174.641954 -16.476064 -6.105646 -9.692236 90.451149 5.384413 -9.934554 21.454555 0.003109 0.000015 146.469622 -1.787502 173.554724 -17.439445 4.599184 11.194240 59.503043 -7.558828 2.028702 21.454553 -0.003078 0.000001 10.481118 1.555646 -2.347986 10.887971 3.325396 -4.540761 10.570381 3.297806 -4.560722 4.054194 13.707309 8.520946 -19.236126 -13.321855 15.943236 -175.313019 -81.290753 -6.292952 -17.565905 55.190857 -5.180919 -92.167576 -2.811775 2.640328 2.217598 -2.446423 37.485443 -163.385979 75.577426 18.475555 -0.830642 -49.097666 -8.629597 -44.165047 19.600176 -1.875172 10.028294 -4.303359 -31.537516 
-224.884472 0.000000 -525.812522 180.000000 -82.315756 180.000000 -4.393003 85.408889 -0.825003 90.036976 1.881003 178.759286 -160.636019 -6.491137 174.006351 -17.641535 -5.914603 -9.546283 89.860159 5.171696 -10.430433 21.454556 0.003116 0.000016 145.297662 -2.701119 177.660522 -21.492692 3.601220 8.771843 59.666986 -6.437035 0.477142 21.454554 -0.003094 0.000001 10.519116 1.740266 -2.345062 10.958092 3.694839 -4.516749 10.640364 3.667392 -4.538946 3.423635 13.798793 8.631262 -19.045928 -13.559531 16.201915 -174.188076 -81.093187 -7.431534 -17.851015 55.598326 -5.814844 -91.782504 -3.096767 2.641146 2.252542 -2.594945 37.660675 -163.812466 75.408320 18.040808 -2.234463 -48.097968 -9.130415 -41.167463 19.154715 -1.757091 9.817394 -3.379369 -31.245942 
-225.153274 0.000000 -523.929713 180.000000 -81.809670 180.000000 -4.376720 85.097198 -0.662015 89.909167 2.487647 178.790923 -160.245295 -6.986892 173.324438 -19.220383 -5.560415 -9.340699 88.673743 4.841766 -11.048056 21.454558 0.003118 0.000017 144.270301 -3.425288 -178.057827 -25.372838 2.346912 6.458389 60.358005 -5.263874 -0.910491 21.454555 -0.003106 0.000001 10.569883 1.937120 -2.370447 11.052539 4.091840 -4.547481 10.734674 4.064202 -4.572076 2.764366 14.007860 8.728130 -19.023935 -13.986055 16.567151 -173.187027 -80.835214 -8.444935 -17.816887 56.252248 -5.945137 -90.884163 -3.754980 2.648875 2.285223 -3.044327 37.524676 -164.325690 75.106648 17.518123 -3.899603 -47.150615 -9.143625 -38.019240 18.439031 -1.630598 9.728722 -2.224964 -31.069266 
-225.458494 0.000000 -522.036324 180.000000 -81.307732 180.000000 -4.323968 84.890303 -0.523523 89.719686 3.031276 178.927368 -160.221252 -7.405026 172.917907 -21.144124 -5.103219 -9.347396 86.653879 4.562410 -11.714907 21.454557 0.003112 0.000018 143.602600 -3.867363 -175.976484 -28.485016 1.977123 5.469440 61.009799 -4.933486 -1.938703 21.454554 -0.003092 0.000001 10.605798 2.140353 -2.399812 11.116966 4.501390 -4.585913 10.798938 4.473508 -4.612982 2.230868 14.197538 8.826696 -19.222061 -14.510810 16.993226 -173.390585 -80.512852 -8.236039 -17.487222 57.033458 -5.261718 -89.200266 -5.018583 2.661961 2.349897 -4.087410 36.977139 -165.061891 74.722351 16.767227 -5.511263 -46.269626 -9.069450 -34.767462 17.614216 -1.499122 9.829457 -0.797108 -30.886659 
